<mxfile host="Electron" modified="2024-09-16T16:42:46.123Z" agent="Mozilla/5.0 (Windows NT 10.0; Win64; x64) AppleWebKit/537.36 (KHTML, like Gecko) draw.io/21.2.8 Chrome/112.0.5615.165 Electron/24.2.0 Safari/537.36" etag="9elmAPOU7EAAzcCFF1J8" version="21.2.8" type="device">
  <diagram id="R2lEEEUBdFMjLlhIrx00" name="Page-1">
    <mxGraphModel dx="1195" dy="703" grid="1" gridSize="10" guides="1" tooltips="1" connect="1" arrows="1" fold="1" page="1" pageScale="1" pageWidth="850" pageHeight="1100" math="0" shadow="0" extFonts="Permanent Marker^https://fonts.googleapis.com/css?family=Permanent+Marker">
      <root>
        <mxCell id="0" />
        <mxCell id="1" parent="0" />
        <mxCell id="fhrmkbEhevnLQE938ipF-1" value="Student" style="rounded=0;whiteSpace=wrap;html=1;" vertex="1" parent="1">
          <mxGeometry x="82.5" y="310" width="77.5" height="30" as="geometry" />
        </mxCell>
        <mxCell id="fhrmkbEhevnLQE938ipF-4" value="Admin" style="rounded=0;whiteSpace=wrap;html=1;" vertex="1" parent="1">
          <mxGeometry x="90" y="127.5" width="78.75" height="30" as="geometry" />
        </mxCell>
        <mxCell id="fhrmkbEhevnLQE938ipF-5" value="Comment" style="rounded=0;whiteSpace=wrap;html=1;" vertex="1" parent="1">
          <mxGeometry x="500" y="265" width="80" height="30" as="geometry" />
        </mxCell>
        <mxCell id="fhrmkbEhevnLQE938ipF-6" value="Rating" style="rounded=0;whiteSpace=wrap;html=1;" vertex="1" parent="1">
          <mxGeometry x="150" y="530" width="85" height="40" as="geometry" />
        </mxCell>
        <mxCell id="fhrmkbEhevnLQE938ipF-7" value="Course" style="rounded=0;whiteSpace=wrap;html=1;" vertex="1" parent="1">
          <mxGeometry x="500" y="320" width="80" height="30" as="geometry" />
        </mxCell>
        <mxCell id="fhrmkbEhevnLQE938ipF-8" value="Account" style="rounded=0;whiteSpace=wrap;html=1;" vertex="1" parent="1">
          <mxGeometry x="460" y="115" width="85" height="30" as="geometry" />
        </mxCell>
        <mxCell id="fhrmkbEhevnLQE938ipF-9" value="Cart" style="rounded=0;whiteSpace=wrap;html=1;" vertex="1" parent="1">
          <mxGeometry x="510" y="230" width="77.5" height="30" as="geometry" />
        </mxCell>
        <mxCell id="fhrmkbEhevnLQE938ipF-10" value="Certificate" style="rounded=0;whiteSpace=wrap;html=1;" vertex="1" parent="1">
          <mxGeometry x="640" y="270" width="80" height="30" as="geometry" />
        </mxCell>
        <mxCell id="fhrmkbEhevnLQE938ipF-11" value="Instructor" style="rounded=0;whiteSpace=wrap;html=1;" vertex="1" parent="1">
          <mxGeometry x="80" y="200" width="77.5" height="30" as="geometry" />
        </mxCell>
        <mxCell id="fhrmkbEhevnLQE938ipF-16" value="" style="endArrow=none;html=1;rounded=0;entryX=0;entryY=0.5;entryDx=0;entryDy=0;" edge="1" parent="1" target="fhrmkbEhevnLQE938ipF-8">
          <mxGeometry relative="1" as="geometry">
            <mxPoint x="380" y="132.08" as="sourcePoint" />
            <mxPoint x="430" y="132.08" as="targetPoint" />
          </mxGeometry>
        </mxCell>
        <mxCell id="fhrmkbEhevnLQE938ipF-17" value="1" style="resizable=0;html=1;whiteSpace=wrap;align=right;verticalAlign=bottom;" connectable="0" vertex="1" parent="fhrmkbEhevnLQE938ipF-16">
          <mxGeometry x="1" relative="1" as="geometry">
            <mxPoint x="-20" as="offset" />
          </mxGeometry>
        </mxCell>
        <mxCell id="fhrmkbEhevnLQE938ipF-18" value="" style="endArrow=none;html=1;rounded=0;exitX=0;exitY=0.5;exitDx=0;exitDy=0;" edge="1" parent="1">
          <mxGeometry relative="1" as="geometry">
            <mxPoint x="300" y="135" as="sourcePoint" />
            <mxPoint x="170" y="140" as="targetPoint" />
          </mxGeometry>
        </mxCell>
        <mxCell id="fhrmkbEhevnLQE938ipF-19" value="1" style="resizable=0;html=1;whiteSpace=wrap;align=right;verticalAlign=bottom;" connectable="0" vertex="1" parent="fhrmkbEhevnLQE938ipF-18">
          <mxGeometry x="1" relative="1" as="geometry">
            <mxPoint x="30" as="offset" />
          </mxGeometry>
        </mxCell>
        <mxCell id="fhrmkbEhevnLQE938ipF-21" value="" style="endArrow=none;html=1;rounded=0;exitX=1;exitY=0.5;exitDx=0;exitDy=0;entryX=0.129;entryY=0.642;entryDx=0;entryDy=0;entryPerimeter=0;" edge="1" parent="1" source="fhrmkbEhevnLQE938ipF-11">
          <mxGeometry relative="1" as="geometry">
            <mxPoint x="470" y="124.76" as="sourcePoint" />
            <mxPoint x="310.32000000000016" y="146.36" as="targetPoint" />
          </mxGeometry>
        </mxCell>
        <mxCell id="fhrmkbEhevnLQE938ipF-22" value="1" style="resizable=0;html=1;whiteSpace=wrap;align=right;verticalAlign=bottom;" connectable="0" vertex="1" parent="fhrmkbEhevnLQE938ipF-21">
          <mxGeometry x="1" relative="1" as="geometry">
            <mxPoint x="-110" y="44" as="offset" />
          </mxGeometry>
        </mxCell>
        <mxCell id="fhrmkbEhevnLQE938ipF-28" value="status" style="ellipse;whiteSpace=wrap;html=1;align=center;" vertex="1" parent="1">
          <mxGeometry x="580" y="105" width="77.5" height="25" as="geometry" />
        </mxCell>
        <mxCell id="fhrmkbEhevnLQE938ipF-30" value="last login" style="ellipse;whiteSpace=wrap;html=1;align=center;" vertex="1" parent="1">
          <mxGeometry x="570" y="145" width="77.5" height="25" as="geometry" />
        </mxCell>
        <mxCell id="fhrmkbEhevnLQE938ipF-40" value="creationDate" style="ellipse;whiteSpace=wrap;html=1;align=center;" vertex="1" parent="1">
          <mxGeometry x="580" y="70" width="77.5" height="25" as="geometry" />
        </mxCell>
        <mxCell id="fhrmkbEhevnLQE938ipF-42" value="role" style="ellipse;whiteSpace=wrap;html=1;align=center;" vertex="1" parent="1">
          <mxGeometry x="501.25" y="70" width="77.5" height="25" as="geometry" />
        </mxCell>
        <mxCell id="fhrmkbEhevnLQE938ipF-44" value="password" style="ellipse;whiteSpace=wrap;html=1;align=center;" vertex="1" parent="1">
          <mxGeometry x="410" y="70" width="77.5" height="25" as="geometry" />
        </mxCell>
        <mxCell id="fhrmkbEhevnLQE938ipF-48" value="email" style="ellipse;whiteSpace=wrap;html=1;align=center;" vertex="1" parent="1">
          <mxGeometry x="527.5" y="170" width="77.5" height="25" as="geometry" />
        </mxCell>
        <mxCell id="fhrmkbEhevnLQE938ipF-49" value="" style="endArrow=none;html=1;rounded=0;entryX=0.17;entryY=0.683;entryDx=0;entryDy=0;entryPerimeter=0;exitX=0.5;exitY=0;exitDx=0;exitDy=0;" edge="1" parent="1" source="fhrmkbEhevnLQE938ipF-1">
          <mxGeometry relative="1" as="geometry">
            <mxPoint x="157.5" y="284.58" as="sourcePoint" />
            <mxPoint x="313.5999999999999" y="149.64" as="targetPoint" />
          </mxGeometry>
        </mxCell>
        <mxCell id="fhrmkbEhevnLQE938ipF-51" value="1" style="text;html=1;align=center;verticalAlign=middle;resizable=0;points=[];autosize=1;strokeColor=none;fillColor=none;" vertex="1" parent="1">
          <mxGeometry x="168.75" y="230" width="30" height="30" as="geometry" />
        </mxCell>
        <mxCell id="fhrmkbEhevnLQE938ipF-55" value="account ID" style="ellipse;whiteSpace=wrap;html=1;align=center;" vertex="1" parent="1">
          <mxGeometry x="450" y="170" width="77.5" height="25" as="geometry" />
        </mxCell>
        <mxCell id="fhrmkbEhevnLQE938ipF-58" value="" style="endArrow=none;html=1;rounded=0;exitX=0.331;exitY=1.018;exitDx=0;exitDy=0;exitPerimeter=0;entryX=0.285;entryY=0.079;entryDx=0;entryDy=0;entryPerimeter=0;" edge="1" parent="1" source="fhrmkbEhevnLQE938ipF-8" target="fhrmkbEhevnLQE938ipF-55">
          <mxGeometry relative="1" as="geometry">
            <mxPoint x="400" y="140" as="sourcePoint" />
            <mxPoint x="560" y="140" as="targetPoint" />
          </mxGeometry>
        </mxCell>
        <mxCell id="fhrmkbEhevnLQE938ipF-59" value="HAS" style="shape=rhombus;double=1;perimeter=rhombusPerimeter;whiteSpace=wrap;html=1;align=center;" vertex="1" parent="1">
          <mxGeometry x="90" y="390" width="120" height="60" as="geometry" />
        </mxCell>
        <mxCell id="fhrmkbEhevnLQE938ipF-60" value="HAS" style="shape=rhombus;double=1;perimeter=rhombusPerimeter;whiteSpace=wrap;html=1;align=center;" vertex="1" parent="1">
          <mxGeometry x="280" y="110" width="120" height="60" as="geometry" />
        </mxCell>
        <mxCell id="fhrmkbEhevnLQE938ipF-61" value="" style="endArrow=none;html=1;rounded=0;entryX=0.5;entryY=0;entryDx=0;entryDy=0;exitX=0.5;exitY=1;exitDx=0;exitDy=0;" edge="1" parent="1" source="fhrmkbEhevnLQE938ipF-59" target="fhrmkbEhevnLQE938ipF-6">
          <mxGeometry relative="1" as="geometry">
            <mxPoint x="30" y="430" as="sourcePoint" />
            <mxPoint x="190" y="430" as="targetPoint" />
          </mxGeometry>
        </mxCell>
        <mxCell id="fhrmkbEhevnLQE938ipF-62" value="N" style="resizable=0;html=1;whiteSpace=wrap;align=right;verticalAlign=bottom;" connectable="0" vertex="1" parent="fhrmkbEhevnLQE938ipF-61">
          <mxGeometry x="1" relative="1" as="geometry">
            <mxPoint x="-7" y="-32" as="offset" />
          </mxGeometry>
        </mxCell>
        <mxCell id="fhrmkbEhevnLQE938ipF-63" value="" style="endArrow=none;html=1;rounded=0;entryX=0.5;entryY=0;entryDx=0;entryDy=0;exitX=0.5;exitY=1;exitDx=0;exitDy=0;" edge="1" parent="1" source="fhrmkbEhevnLQE938ipF-1" target="fhrmkbEhevnLQE938ipF-59">
          <mxGeometry relative="1" as="geometry">
            <mxPoint x="100" y="300" as="sourcePoint" />
            <mxPoint x="260" y="300" as="targetPoint" />
          </mxGeometry>
        </mxCell>
        <mxCell id="fhrmkbEhevnLQE938ipF-64" value="1" style="resizable=0;html=1;whiteSpace=wrap;align=right;verticalAlign=bottom;" connectable="0" vertex="1" parent="fhrmkbEhevnLQE938ipF-63">
          <mxGeometry x="1" relative="1" as="geometry">
            <mxPoint x="-2" y="-18" as="offset" />
          </mxGeometry>
        </mxCell>
        <mxCell id="fhrmkbEhevnLQE938ipF-66" value="&lt;span style=&quot;border-bottom: 1px dotted&quot;&gt;customer ID&lt;/span&gt;" style="ellipse;whiteSpace=wrap;html=1;align=center;" vertex="1" parent="1">
          <mxGeometry x="10" y="530" width="100" height="40" as="geometry" />
        </mxCell>
        <mxCell id="fhrmkbEhevnLQE938ipF-67" value="&lt;span style=&quot;border-bottom: 1px dotted&quot;&gt;CourseID&lt;/span&gt;" style="ellipse;whiteSpace=wrap;html=1;align=center;" vertex="1" parent="1">
          <mxGeometry x="57.5" y="590" width="100" height="40" as="geometry" />
        </mxCell>
        <mxCell id="fhrmkbEhevnLQE938ipF-68" value="Score" style="ellipse;whiteSpace=wrap;html=1;align=center;" vertex="1" parent="1">
          <mxGeometry x="180" y="600" width="100" height="40" as="geometry" />
        </mxCell>
      </root>
    </mxGraphModel>
  </diagram>
</mxfile>
